# xmcd CD database file
#
# Track frame offsets:
#	150
#	13115
#	21897
#	31415
#	41555
#	51857
#	64100
#	74002
#	82715
#	98310
#	107562
#	118532
#	126205
#	138565
#	150360
#	161867
#	172850
#	185365
#	193530
#	206142
#	213385
#	224320
#	231670
#	241780
#	253992
#	270612
#	279895
#	288152
#	303587
#	312910
#
# Disc length: 4296 seconds
#
# Revision: 2
# Processed by: cddbd v1.5.1PL0 Copyright (c) Steve Scherf et al.
# Submitted via: CDex 1.51
#
DISCID=ac10c61e
DTITLE=Various Artist - 30 Sucessos Originais em 30 Anos de Bossa Nova
DYEAR=1999
DGENRE=Bossa Nova
TTITLE0=Ap lo
TTITLE1=Minha Namorada
TTITLE2=Onde est  voc 
TTITLE3=Influ ncia do Jazz
TTITLE4=Este seu olhar
TTITLE5=Deixa
TTITLE6=Bossa na praia
TTITLE7=In til Paisagem
TTITLE8=Samba em Prel dio
TTITLE9=Se todos fossem iguais a voce
TTITLE10=Nana
TTITLE11=Rapaz de Bem
TTITLE12=Alel ia
TTITLE13=Desafinado
TTITLE14=Noite dos Namorados
TTITLE15=Terra de Ningu m
TTITLE16=Corcovado
TTITLE17=Chega de Saudades
TTITLE18=O Barquinho
TTITLE19=Vivo Sonhando
TTITLE20=N s e o mar
TTITLE21=S  tinha de ser com voc 
TTITLE22=C u e Mar
TTITLE23=A Felicidade
TTITLE24=Garota de Ipanema
TTITLE25=Quem quiser encontrar o amor
TTITLE26=Tristeza de n s dois
TTITLE27=Antes e depois
TTITLE28=Marcha da Quarta Feira de Cinzas
TTITLE29=Chove Chuva
EXTD=YEAR: 1999
EXTT0=Vin cius, Toquinho e Maria Bet nia\n
EXTT1=Sansa Trio\n
EXTT2=Alaide Costa\n
EXTT3=Luiz Chaves e seu Conjunto\n
EXTT4=Dick Farney\n
EXTT5=Toquinho\n
EXTT6=Maricene Costa\n
EXTT7=Ten rio Jr. e seu Conjunto\n
EXTT8=Geraldo Vandr  com Ana L cia\n
EXTT9=Maysa\n
EXTT10=Sambalan o Trio\n
EXTT11=Walter Santos\n
EXTT12=Ed  Lobo e Yvete\n
EXTT13=Octeto de Cesar Camargo Mariano\n
EXTT14=Chico Buarque de Holanda, Odete Lara \ne MPB-4\n
EXTT15=Elis Regina e Marcos Valle\n
EXTT16=Sambossa 5\n
EXTT17=Maria Creuza\n
EXTT18=Paulinho Nogueira\n
EXTT19=Geraldo Cunha\n
EXTT20=Manfredo Fest\n
EXTT21=Ant nio Carlos Jobim\n
EXTT22=Quarteto de Sab \n
EXTT23=Agostinho dos Santos e ao piano Ant nio \nCarlos Jobim\n
EXTT24=Zimbo Trio\n
EXTT25=Geraldo Vandr \n
EXTT26=Wanda\n
EXTT27=Oscar Castro Neves\n
EXTT28=Os Bossais\n
EXTT29=Jorge Ben\n
PLAYORDER=
